<?xml version="1.0" encoding="UTF-8"?>
<svg width="126.32mm" height="91.26mm" version="1.1" viewBox="0 0 126.32 91.26" xmlns="http://www.w3.org/2000/svg" xmlns:cc="http://creativecommons.org/ns#" xmlns:dc="http://purl.org/dc/elements/1.1/" xmlns:rdf="http://www.w3.org/1999/02/22-rdf-syntax-ns#">
 <metadata>
  <rdf:RDF>
   <cc:Work rdf:about="">
    <dc:format>image/svg+xml</dc:format>
    <dc:type rdf:resource="http://purl.org/dc/dcmitype/StillImage"/>
    <dc:title/>
   </cc:Work>
  </rdf:RDF>
 </metadata>
 <g transform="translate(-9.5663 -12.728)">
  <g transform="matrix(1 0 0 1.1536 -29.053 -49.432)">
   <path d="m57.869 132.99q-8.0795-7.6866-13.665-17.99-5.5852-10.303-5.5852-21.343 0-9.731 4.1753-18.644 4.8802-10.344 15.074-20.607h6.995q-6.5612 8.5044-8.676 12.143-3.3077 5.6423-5.2056 11.775-2.3317 7.6458-2.3317 15.373 0 19.666 16.213 39.292z"/>
   <path d="m145.69 132.99h-6.995q16.213-19.625 16.213-39.292 0-7.6866-2.3317-15.251-1.8436-6.133-5.1514-11.775-2.1148-3.6798-8.7302-12.266h6.995q10.194 10.262 15.074 20.607 4.1753 8.9132 4.1753 18.644 0 11.039-5.6394 21.343-5.5852 10.303-13.61 17.99z"/>
   <g transform="matrix(.92395 0 0 .92395 8.5156 -98.732)">
    <g transform="matrix(-.6973 .84555 -.71677 -.56493 328.94 251.09)" fill="#808080">
     <path transform="scale(.26458)" d="m385.41 623.64-89.021 307.24 43.975 15.008 5.8535 85.875h77.955l5.8184-85.34 45.539-15.543z"/>
     <path d="m101.97 165.01-0.0569 108.16"/>
    </g>
    <g transform="matrix(-.6973 .84555 -.71677 -.56493 328.94 244.58)" stroke="#000">
     <path transform="scale(.26458)" d="m385.41 623.64-89.021 307.24 43.975 15.008 5.8535 85.875h77.955l5.8184-85.34 45.539-15.543z" fill="#999" stroke-width="14.74"/>
     <path d="m101.97 165.01-0.0569 108.16" fill="none" stroke-width="3"/>
    </g>
   </g>
  </g>
 </g>
</svg>
